<svg xmlns="http://www.w3.org/2000/svg" width="1024" height="1024" viewBox="0 0 37 37" shape-rendering="crispEdges"><path fill="#0b0b10" d="M0 0h37v37H0z"/><path stroke="#d4a240" d="M2 2.5h7m1 0h5m5 0h1m3 0h1m3 0h7M2 3.5h1m5 0h1m1 0h1m2 0h2m3 0h2m1 0h1m1 0h2m3 0h1m5 0h1M2 4.5h1m1 0h3m1 0h1m1 0h3m1 0h1m3 0h3m1 0h3m1 0h1m1 0h1m1 0h3m1 0h1M2 5.5h1m1 0h3m1 0h1m4 0h2m8 0h1m1 0h2m1 0h1m1 0h3m1 0h1M2 6.5h1m1 0h3m1 0h1m1 0h1m5 0h2m1 0h2m1 0h1m3 0h1m1 0h1m1 0h3m1 0h1M2 7.5h1m5 0h1m4 0h1m2 0h1m2 0h1m2 0h2m1 0h1m2 0h1m5 0h1M2 8.5h7m1 0h1m1 0h1m1 0h1m1 0h1m1 0h1m1 0h1m1 0h1m1 0h1m1 0h1m1 0h7M11 9.5h2m1 0h3m4 0h2m3 0h1M2 10.5h1m2 0h6m3 0h1m1 0h6m3 0h3m2 0h1m1 0h3M2 11.5h1m1 0h1m6 0h1m4 0h2m2 0h2m3 0h1m4 0h3M3 12.5h1m1 0h1m1 0h6m3 0h5m1 0h2m1 0h2m1 0h1m1 0h3m1 0h1M5 13.5h3m1 0h2m2 0h2m1 0h1m2 0h1m2 0h1m2 0h1m1 0h1m1 0h1m2 0h1m1 0h1M4 14.5h1m1 0h5m1 0h1m1 0h9m2 0h1m2 0h2M2 15.5h3m1 0h2m2 0h1m3 0h1m3 0h2m1 0h1m1 0h3m1 0h1m1 0h1m1 0h1M2 16.5h1m4 0h2m2 0h2m1 0h2m2 0h1m4 0h2m3 0h2M6 17.5h1m3 0h1m3 0h1m1 0h2m3 0h1m4 0h2m2 0h3m1 0h1M2 18.5h1m1 0h1m3 0h3m2 0h1m2 0h1m1 0h1m2 0h2m2 0h1m1 0h4M3 19.5h1m2 0h1m3 0h1m6 0h1m3 0h2m1 0h1m3 0h1m1 0h1m1 0h1m1 0h1M2 20.5h4m2 0h3m1 0h2m2 0h3m2 0h1m1 0h3m1 0h1m1 0h1m1 0h2m1 0h1M2 21.5h1m1 0h4m5 0h2m3 0h5m2 0h2m1 0h1m1 0h3M2 22.5h1m2 0h4m2 0h1m4 0h2m4 0h1m3 0h1m4 0h1m2 0h1M2 23.5h3m2 0h1m1 0h2m1 0h1m1 0h3m1 0h1m1 0h1m1 0h2m1 0h1m3 0h4M2 24.5h1m1 0h3m1 0h1m2 0h2m2 0h1m1 0h4m2 0h3m1 0h4m1 0h3M2 25.5h1m7 0h1m4 0h2m1 0h3m8 0h1m2 0h1M2 26.5h3m2 0h2m2 0h2m1 0h2m1 0h2m2 0h2m2 0h6m2 0h2M10 27.5h1m4 0h4m6 0h2m3 0h1m1 0h2M2 28.5h7m1 0h3m2 0h1m1 0h1m2 0h2m1 0h4m1 0h1m1 0h1m1 0h1M2 29.5h1m5 0h1m1 0h2m1 0h2m1 0h2m3 0h2m1 0h3m3 0h5M2 30.5h1m1 0h3m1 0h1m1 0h1m2 0h1m5 0h2m1 0h2m1 0h6M2 31.5h1m1 0h3m1 0h1m1 0h1m1 0h2m1 0h1m3 0h1m2 0h1m1 0h1m1 0h2m1 0h1m1 0h4M2 32.5h1m1 0h3m1 0h1m2 0h1m6 0h1m1 0h1m1 0h1m1 0h1m1 0h2m1 0h6M2 33.5h1m5 0h1m5 0h2m1 0h2m1 0h1m4 0h1m3 0h2m1 0h3M2 34.5h7m1 0h1m1 0h1m1 0h1m3 0h2m2 0h1m2 0h3m1 0h2"/></svg>
